<svg width="168" height="168" viewBox="0 0 168 168" fill="none" xmlns="http://www.w3.org/2000/svg">
<path d="M59 75.66C63.6005 75.66 67.33 71.9307 67.33 67.33C67.33 62.7295 63.6005 59 59 59C54.3995 59 50.67 62.7295 50.67 67.33C50.67 71.9307 54.3995 75.66 59 75.66Z" fill="#ACACAC"/>
<path d="M100.66 125.66C100.66 116.459 93.2013 109 84 109C74.7987 109 67.34 116.459 67.34 125.66H50.68C50.68 107.258 65.5979 92.34 84 92.34C102.402 92.34 117.32 107.258 117.32 125.66H100.66Z" fill="#ACACAC"/>
<path d="M117.33 67.33C117.33 71.9307 113.601 75.66 109 75.66C104.399 75.66 100.67 71.9307 100.67 67.33C100.67 62.7295 104.399 59 109 59C113.601 59 117.33 62.7295 117.33 67.33Z" fill="#ACACAC"/>
<path fill-rule="evenodd" clip-rule="evenodd" d="M167.3 84C167.3 130.005 130.005 167.3 84 167.3C37.9947 167.3 0.700012 130.005 0.700012 84C0.700012 37.9947 37.9947 0.700012 84 0.700012C130.005 0.700012 167.3 37.9947 167.3 84ZM150.64 84C150.64 120.804 120.804 150.64 84 150.64C47.1957 150.64 17.36 120.804 17.36 84C17.36 47.1957 47.1957 17.36 84 17.36C120.804 17.36 150.64 47.1957 150.64 84Z" fill="#ACACAC"/>
</svg>
